<svg width="24" height="24" viewBox="0 0 24 24" fill="none" xmlns="http://www.w3.org/2000/svg">
<g clip-path="url(#clip0_205_385)">
<path d="M14.53 7.53001C14.6625 7.38784 14.7346 7.19979 14.7312 7.00549C14.7277 6.81119 14.649 6.6258 14.5116 6.48839C14.3742 6.35098 14.1888 6.27226 13.9945 6.26884C13.8002 6.26541 13.6122 6.33753 13.47 6.47001L8.47 11.47C8.40031 11.5397 8.34502 11.6224 8.3073 11.7134C8.26958 11.8044 8.25016 11.902 8.25016 12.0005C8.25016 12.099 8.26958 12.1966 8.3073 12.2876C8.34502 12.3787 8.40031 12.4614 8.47 12.531L13.47 17.531C13.6115 17.6676 13.801 17.7431 13.9977 17.7413C14.1943 17.7395 14.3824 17.6605 14.5214 17.5214C14.6604 17.3823 14.7391 17.1941 14.7408 16.9975C14.7424 16.8008 14.6667 16.6114 14.53 16.47L10.06 12L14.53 7.53001Z" fill="#323232"/>
</g>
<defs>
<clipPath id="clip0_205_385">
<rect width="24" height="24" fill="white" transform="translate(24 24) rotate(-180)"/>
</clipPath>
</defs>
</svg>
