<svg width="24" height="24" viewBox="0 0 24 24" fill="none" xmlns="http://www.w3.org/2000/svg">
<g clipPath="url(#clip0_205_417)">
<path d="M6.38 1.6C4.592 1.6928 2.888 2.5624 1.724 3.912C0.56 5.256 0 7.0288 0 8.8C0 10.3504 0.5576 11.8528 1.3168 13.168C2.0768 14.4832 3.0688 15.6296 4.1168 16.6832C6.376 18.9496 8.9808 20.8688 11.8144 22.3552C11.9304 22.416 12.0704 22.416 12.1856 22.3552C15.02 20.8688 17.624 18.9496 19.8832 16.6832C20.9312 15.6296 21.9232 14.4832 22.6832 13.1688C23.4432 11.8536 24 10.352 24 8.8C24 7.024 23.44 5.2576 22.2768 3.912C21.112 2.5616 19.408 1.692 17.6208 1.6C16.408 1.5376 15.1848 1.8288 14.1312 2.432C13.2536 2.9328 12.5512 3.6784 12 4.5232C11.448 3.6784 10.7464 2.9328 9.8688 2.4312C8.816 1.828 7.592 1.536 6.3808 1.6H6.38ZM6.42 2.4C7.476 2.3456 8.552 2.6 9.4704 3.1248C10.3888 3.6496 11.156 4.4464 11.6464 5.384C11.7952 5.672 12.2048 5.672 12.3544 5.384C12.844 4.4464 13.6104 3.6496 14.5304 3.1248C15.448 2.6 16.5224 2.3456 17.58 2.4C19.1336 2.48 20.6496 3.2496 21.672 4.432C22.696 5.6184 23.2 7.2 23.2 8.8C23.2 10.184 22.6976 11.544 21.9904 12.768C21.2824 13.996 20.3392 15.0912 19.3168 16.1168C17.168 18.2744 14.6864 20.0968 12 21.5296C9.3136 20.0976 6.832 18.2736 4.6832 16.1168C3.6608 15.0912 2.7176 13.9968 2.0096 12.7688C1.3024 11.544 0.8 10.184 0.8 8.8C0.8 7.2 1.304 5.6176 2.328 4.432C3.3504 3.2504 4.8664 2.48 6.42 2.4Z" fill="#323232"/>
</g>
<defs>
<clipPath id="clip0_205_417">
<rect width="24" height="24" fill="white"/>
</clipPath>
</defs>
</svg>
