<svg width="288" height="241" viewBox="0 0 288 241" fill="none" xmlns="http://www.w3.org/2000/svg">
<g clipPath="url(#clip0_202_409)">
<path d="M140.412 177.375C147.268 179.455 151.721 184.581 150.36 188.823C148.998 193.066 142.337 194.818 135.479 192.737C132.728 191.942 130.212 190.518 128.143 188.584L99.2089 179.414L103.923 166.302L131.946 176.734C134.78 176.287 137.683 176.507 140.412 177.375L140.412 177.375Z" fill="#FFB6B6"/>
<path d="M78.4272 81.1668H78.4272C71.5281 80.3721 65.1757 84.9066 63.8905 91.5459C59.3063 115.227 49.57 166.436 50.8521 167.683C52.5214 169.306 114.84 187.162 114.84 187.162L122.073 172.012L80.8985 152.533L89.9287 95.8932C91.075 88.7028 85.8577 82.0226 78.4272 81.1668V81.1668Z" fill="#E6E6E6"/>
<path d="M153.505 202.008C146.816 204.549 140.045 203.252 138.383 199.111C136.721 194.971 140.796 189.556 147.489 187.015C150.148 185.965 153.027 185.549 155.885 185.802L184.368 175.384L189.111 188.486L160.528 197.365C158.602 199.436 156.194 201.028 153.505 202.008H153.505Z" fill="#A0616A"/>
<path d="M194.582 89.5494H194.582C201.41 88.3057 208.062 92.4148 209.803 98.9551C216.013 122.283 229.266 172.74 228.073 174.068C226.52 175.797 165.576 197.685 165.576 197.685L157.312 183.041L197.048 160.916L184.124 104.994C182.483 97.8949 187.227 90.8888 194.582 89.5494L194.582 89.5494Z" fill="#E6E6E6"/>
<path d="M73.54 84.5685L76.9337 63.9423L54.0263 54.8668L50.6326 86.2186L73.54 84.5685Z" fill="#FFB6B6"/>
<path d="M207.33 87.815L203.936 67.1888L226.843 58.1133L230.237 89.4651L207.33 87.815Z" fill="#A0616A"/>
<path d="M67.7511 70.5729C80.6526 70.5729 91.1113 60.4024 91.1113 47.8564C91.1113 35.3104 80.6526 25.1399 67.7511 25.1399C54.8497 25.1399 44.391 35.3104 44.391 47.8564C44.391 60.4024 54.8497 70.5729 67.7511 70.5729Z" fill="#FFB6B6"/>
<path d="M65.8868 17.3157C66.5628 17.6994 67.4682 17.1189 67.6849 16.3875C67.9016 15.6562 67.6492 14.8796 67.3988 14.1585L66.1384 10.5282C65.2445 7.95357 64.2958 5.28893 62.3598 3.32927C59.4377 0.371482 54.7939 -0.380967 50.6136 0.164156C45.2452 0.864198 39.9484 3.69104 37.4522 8.36559C34.9561 13.0401 36.0188 19.5628 40.5292 22.4792C34.1009 29.6441 31.8601 37.6291 32.2139 47.1314C32.5677 56.6337 43.2163 65.379 50.1606 72.073C51.7114 71.1588 53.1213 66.8746 52.2685 65.3183C51.4157 63.762 52.6376 61.9589 51.5814 60.5253C50.5252 59.0918 49.6416 61.3744 50.7094 59.949C51.3831 59.0495 48.7535 56.9802 49.755 56.4419C54.5991 53.838 56.2102 47.9664 59.2527 43.47C62.9224 38.0465 69.2032 34.3737 75.8499 33.7644C79.5113 33.4287 83.3786 34.0367 86.3798 36.1038C89.3809 38.1708 91.3238 41.8647 90.6279 45.3764C92.4302 43.5968 93.3274 40.9888 92.989 38.5127C92.6506 36.0367 91.0841 33.7471 88.8663 32.487C90.2148 28.1504 89.0596 23.1621 85.9296 19.8063C82.7997 16.4505 70.1029 17.0221 65.5334 17.9053" fill="#2F2E41"/>
<path d="M65.1772 33.896C59.125 34.5314 54.7552 39.6294 51.0652 44.3375C48.9384 47.0511 46.7106 50.0478 46.764 53.4593C46.818 56.9085 49.1894 59.8669 50.3228 63.1356C52.1753 68.4785 50.3698 74.8352 45.9601 78.4961C50.3174 79.3002 55.0278 76.1231 55.78 71.8727C56.6557 66.9246 52.7986 62.1491 53.2554 57.148C53.6579 52.742 57.2283 49.3511 60.2638 46.0567C63.2992 42.7624 66.1501 38.3908 64.7536 34.1811" fill="#2F2E41"/>
<path d="M76.1865 81.1099L49.7393 74.0758L22.475 84.8974L10.7903 174.717L77.56 176.882V162.394C77.56 162.394 89.2447 148.204 87.0191 127.643L84.7934 107.082L76.1865 81.1099Z" fill="#E6E6E6"/>
<path d="M88.4101 117.633L36.1072 114.928L21.9186 154.156C21.9186 154.156 4.39154 177.693 1.60946 195.008C-1.17261 212.323 0.496634 236.671 0.496634 236.671H84.2304L77.56 162.394C77.56 162.394 93.1331 129.537 91.328 123.855C89.5229 118.174 88.4101 117.633 88.4101 117.633L88.4101 117.633Z" fill="#3F3D56"/>
<path d="M48.3483 74.3463H35.5507V120.338H48.3483V74.3463Z" fill="#3F3D56"/>
<path d="M87.8537 84.6269H75.0562V122.503H87.8537V84.6269Z" fill="#3F3D56"/>
<path d="M203.57 85.4385L230.018 78.4044L257.282 89.2261L268.967 179.046L202.197 181.21V166.722C202.197 166.722 195.367 151.911 201.919 132.242C208.317 113.034 194.963 111.411 194.963 111.411L203.57 85.4385V85.4385Z" fill="#E6E6E6"/>
<path d="M191.347 121.962L243.65 119.256L257.838 158.485C257.838 158.485 266.463 185.268 269.245 202.583C272.027 219.898 279.26 241 279.26 241H195.526L193.016 169.577L191.347 121.962L191.347 121.962Z" fill="#3F3D56"/>
<path d="M244.206 78.675H231.409V124.667H244.206V78.675Z" fill="#3F3D56"/>
<path d="M204.701 88.9556H191.903V126.831H204.701V88.9556Z" fill="#3F3D56"/>
<path d="M233.191 65.3966C244.617 54.2856 244.617 36.271 233.191 25.16C221.766 14.0489 203.241 14.0489 191.815 25.16C180.389 36.271 180.389 54.2856 191.815 65.3966C203.241 76.5076 221.766 76.5076 233.191 65.3966Z" fill="#A0616A"/>
<path d="M241.282 60.7126C241.282 60.7126 227.126 44.1944 221.464 45.5709C215.802 46.9474 219.341 49.0122 219.341 49.0122L205.186 33.8705C205.186 33.8705 193.862 29.741 183.245 42.8179C183.245 42.8179 176.875 31.8057 183.245 25.6114C189.615 19.4171 191.738 20.1054 193.154 16.6641C194.569 13.2228 204.478 10.4698 204.478 10.4698C204.478 10.4698 203.91 5.51647 207.025 7.99311C210.14 10.4698 217.92 10.4698 217.92 10.4698C217.92 10.4698 217.964 7.71672 221.13 10.4698C224.295 13.2228 227.834 11.8463 227.834 11.8463C227.834 11.8463 227.834 16.6099 230.311 16.637C232.788 16.6641 237.035 13.2228 237.743 15.9758C238.45 18.7288 243.405 20.1054 244.113 28.3645C244.82 36.6235 241.282 60.7126 241.282 60.7126Z" fill="#2F2E41"/>
<path d="M132.771 103.178L155.423 144.821L152.318 146.419L129.666 104.775C129.337 104.171 129.574 103.421 130.196 103.101L131.049 102.662C131.67 102.342 132.442 102.574 132.771 103.178V103.178Z" fill="#3F3D56"/>
<path d="M170.509 160.559C164.746 159.114 158.717 161.673 155.825 166.731C152.204 173.065 148.067 178.261 149.452 165.877C150.977 152.243 142.752 141.232 149.216 137.907C155.68 134.582 162.355 144.687 172.86 153.836C182.597 162.316 176.982 162.182 170.509 160.559L170.509 160.559Z" fill="#3F3D56"/>
<path d="M137.152 111.602C143.685 108.702 150.519 109.628 152.417 113.672C154.315 117.715 150.557 123.343 144.021 126.244C141.427 127.438 138.576 128.01 135.708 127.912L107.868 139.863L102.379 127.039L130.407 116.619C132.211 114.447 134.524 112.727 137.152 111.603V111.602Z" fill="#FFB6B6"/>
<path d="M24.9626 80.1865L24.9626 80.1865C19.2795 84.0724 17.661 91.572 21.2606 97.3504C34.0997 117.961 61.9951 162.415 63.8057 162.511C66.1628 162.637 124.826 135.488 124.826 135.488L119.814 119.511L75.783 131.728L43.6347 83.6884C39.5535 77.5898 31.0834 76.0012 24.9626 80.1865V80.1865V80.1865Z" fill="#E6E6E6"/>
<path d="M139.936 175.556L215.187 136.847L224.425 153.829C232.394 168.478 226.633 186.662 211.569 194.411L190.905 205.041C175.841 212.789 157.142 207.187 149.173 192.538L139.936 175.556V175.556H139.936Z" fill="#FFF7E9"/>
<path d="M203.691 201.576C197.159 204.478 190.324 203.552 188.426 199.509C186.527 195.466 190.284 189.838 196.819 186.936C199.414 185.742 202.264 185.17 205.133 185.266L232.971 173.312L238.461 186.135L210.435 196.559C208.631 198.731 206.319 200.452 203.691 201.576H203.691Z" fill="#A0616A"/>
<path d="M260.31 87.1187H260.31C267.209 86.3241 273.561 90.8585 274.846 97.4978C279.431 121.179 289.167 172.388 287.885 173.635C286.215 175.258 223.897 193.114 223.897 193.114L216.664 177.964L257.838 158.485L248.808 101.845C247.662 94.6548 252.879 87.9745 260.31 87.1187V87.1187Z" fill="#E6E6E6"/>
</g>
<defs>
<clipPath id="clip0_202_409">
<rect width="288" height="241" fill="white"/>
</clipPath>
</defs>
</svg>
