<svg width="25" height="24" viewBox="0 0 25 24" fill="none" xmlns="http://www.w3.org/2000/svg">
<path d="M22.0506 7.392H8.82663C8.73063 7.392 8.64663 7.36 8.57463 7.296C8.50263 7.232 8.45863 7.152 8.44263 7.056L7.67463 3.12C7.64263 2.896 7.54663 2.716 7.38663 2.58C7.22663 2.444 7.03463 2.376 6.81063 2.376H3.30663C3.06663 2.376 2.86263 2.46 2.69463 2.628C2.52663 2.796 2.44263 3 2.44263 3.24V3.36C2.44263 3.6 2.52663 3.808 2.69463 3.984C2.86263 4.16 3.06663 4.248 3.30663 4.248H5.75463C5.81863 4.248 5.87463 4.268 5.92263 4.308C5.97063 4.348 6.00263 4.4 6.01863 4.464L8.46663 17.52C8.51463 17.824 8.67463 18.048 8.94663 18.192C9.07463 18.272 9.21863 18.312 9.37863 18.312H9.78663C9.43463 18.712 9.26663 19.18 9.28263 19.716C9.29863 20.252 9.49863 20.704 9.88263 21.072C10.2666 21.44 10.7266 21.624 11.2626 21.624C11.7986 21.624 12.2626 21.44 12.6546 21.072C13.0466 20.704 13.2506 20.252 13.2666 19.716C13.2826 19.18 13.1066 18.712 12.7386 18.312H17.2026C16.8346 18.712 16.6626 19.18 16.6866 19.716C16.7106 20.252 16.9146 20.704 17.2986 21.072C17.6826 21.44 18.1426 21.624 18.6786 21.624C19.2146 21.624 19.6746 21.44 20.0586 21.072C20.4426 20.704 20.6426 20.252 20.6586 19.716C20.6746 19.18 20.5066 18.712 20.1546 18.312H20.5626C20.8026 18.312 21.0066 18.228 21.1746 18.06C21.3426 17.892 21.4266 17.688 21.4266 17.448V17.256C21.4266 17.016 21.3386 16.812 21.1626 16.644C20.9866 16.476 20.7786 16.392 20.5386 16.392H10.4826C10.3866 16.392 10.3026 16.36 10.2306 16.296C10.1586 16.232 10.1146 16.16 10.0986 16.08L9.85863 14.784C9.84263 14.656 9.87463 14.544 9.95463 14.448C10.0346 14.352 10.1306 14.312 10.2426 14.328H21.2826C21.4906 14.328 21.6706 14.264 21.8226 14.136C21.9746 14.008 22.0666 13.84 22.0986 13.632L22.8906 8.376C22.9386 8.12 22.8786 7.892 22.7106 7.692C22.5426 7.492 22.3226 7.392 22.0506 7.392Z" fill="black"/>
</svg>
