<svg width="24" height="24" viewBox="0 0 24 24" fill="none" xmlns="http://www.w3.org/2000/svg">
<g clipPath="url(#clip0_207_1170)">
<path d="M12 1.2C5.99995 1.2 1.19995 6 1.19995 12C1.19995 18 5.99995 22.8 12 22.8C18 22.8 22.8 18 22.8 12C22.8 6 18 1.2 12 1.2ZM12 20.4C7.31995 20.4 3.59995 16.68 3.59995 12C3.59995 7.32 7.31995 3.6 12 3.6C16.68 3.6 20.4 7.32 20.4 12C20.4 16.68 16.68 20.4 12 20.4ZM7.19995 10.8V13.2H16.8V10.8H7.19995Z" fill="black"/>
</g>
<defs>
<clipPath id="clip0_207_1170">
<rect width="24" height="24" fill="white"/>
</clipPath>
</defs>
</svg>
