<svg width="16" height="16" viewBox="0 0 16 16" fill="none" xmlns="http://www.w3.org/2000/svg">
<g clip-path="url(#clip0_206_85)">
<path d="M14.8667 15.8L10.3333 11.2667C9.26667 12.1333 7.86667 12.6667 6.33333 12.6667C2.86667 12.6667 0 9.8 0 6.33333C0 2.86667 2.86667 0 6.33333 0C9.8 0 12.6667 2.86667 12.6667 6.33333C12.6667 7.86667 12.1333 9.2 11.2667 10.3333L15.8 14.8667L14.8667 15.8ZM6.33333 1.33333C3.6 1.33333 1.33333 3.6 1.33333 6.33333C1.33333 9.06667 3.6 11.3333 6.33333 11.3333C9.06667 11.3333 11.3333 9.06667 11.3333 6.33333C11.3333 3.6 9.06667 1.33333 6.33333 1.33333Z" fill="black"/>
</g>
<defs>
<clipPath id="clip0_206_85">
<rect width="16" height="16" fill="white"/>
</clipPath>
</defs>
</svg>
