<svg width="12" height="12" viewBox="0 0 12 12" fill="none" xmlns="http://www.w3.org/2000/svg">
<g clipPath="url(#clip0_205_434)">
<path fillRule="evenodd" clipRule="evenodd" d="M6.00001 9.16985L9.00331 10.4933L8.67271 7.228L10.8595 4.78065L7.65181 4.08606L6.00001 1.25004L4.34816 4.08606L1.14051 4.78065L3.32728 7.228L2.99667 10.4933L6.00001 9.16985ZM3.39991 11.4084C2.89453 11.6311 2.30429 11.4019 2.08158 10.8965C2.01184 10.7383 1.98434 10.5646 2.00176 10.3926L2.28798 7.5657L0.394821 5.44695C0.0268386 5.0351 0.0623873 4.40295 0.474222 4.03497C0.60319 3.91973 0.75984 3.83992 0.92887 3.80331L3.70584 3.20197L5.13586 0.74674C5.41387 0.269505 6.02606 0.107965 6.50331 0.38593C6.65272 0.472975 6.77706 0.597295 6.86411 0.74674L8.29416 3.20197L11.0711 3.80331C11.6109 3.9202 11.9537 4.45252 11.8368 4.9923C11.8002 5.16135 11.7204 5.318 11.6052 5.44695L9.71201 7.5657L9.99821 10.3926C10.0539 10.942 9.65351 11.4326 9.10406 11.4882C8.93196 11.5056 8.75832 11.4781 8.60006 11.4084L6.00001 10.2626L3.39991 11.4084Z" fill="#758CA3"/>
</g>
<defs>
<clipPath id="clip0_205_434">
<rect width="12" height="12" fill="white"/>
</clipPath>
</defs>
</svg>
