<svg width="24" height="24" viewBox="0 0 24 24" fill="none" xmlns="http://www.w3.org/2000/svg">
<path fillRule="evenodd" clipRule="evenodd" d="M8.75001 7C8.75001 5.20507 10.2051 3.75 12 3.75C13.7949 3.75 15.25 5.20507 15.25 7C15.25 8.79493 13.7949 10.25 12 10.25C10.2051 10.25 8.75001 8.79493 8.75001 7ZM12 2.25C9.37666 2.25 7.25001 4.37665 7.25001 7C7.25001 9.62335 9.37666 11.75 12 11.75C14.6234 11.75 16.75 9.62335 16.75 7C16.75 4.37665 14.6234 2.25 12 2.25ZM6.3135 18.4024C7.30043 16.2458 9.47633 14.75 12 14.75C14.5237 14.75 16.6996 16.2458 17.6865 18.4024C17.8943 18.8566 17.7999 19.2728 17.4994 19.6166C17.1799 19.9822 16.6264 20.25 16 20.25H8.00001C7.37361 20.25 6.82017 19.9822 6.5006 19.6166C6.20013 19.2728 6.10568 18.8566 6.3135 18.4024ZM12 13.25C8.86807 13.25 6.17162 15.1078 4.94954 17.7782C4.4679 18.8307 4.72928 19.8693 5.37121 20.6037C5.99403 21.3163 6.96956 21.75 8.00001 21.75H16C17.0305 21.75 18.006 21.3163 18.6288 20.6037C19.2708 19.8693 19.5321 18.8307 19.0505 17.7782C17.8284 15.1078 15.132 13.25 12 13.25Z" fill="black"/>
</svg>
