<svg width="25" height="24" viewBox="0 0 25 24" fill="none" xmlns="http://www.w3.org/2000/svg">
<path d="M11.8357 3.861C11.9016 3.80943 11.9829 3.78141 12.0667 3.78141C12.1504 3.78141 12.2317 3.80943 12.2977 3.861L20.1727 10.041C20.2173 10.0759 20.2535 10.1205 20.2784 10.1715C20.3034 10.2224 20.3164 10.2783 20.3167 10.335V21.375C20.3167 21.6734 20.4352 21.9595 20.6462 22.1705C20.8571 22.3815 21.1433 22.5 21.4417 22.5C21.74 22.5 22.0262 22.3815 22.2371 22.1705C22.4481 21.9595 22.5667 21.6734 22.5667 21.375V10.335C22.5667 9.93706 22.4762 9.54432 22.3021 9.18649C22.128 8.82866 21.8748 8.51509 21.5616 8.2695L13.6867 2.091C13.2245 1.7285 12.654 1.53149 12.0667 1.53149C11.4793 1.53149 10.9088 1.7285 10.4467 2.091L2.57165 8.271C2.25873 8.51643 2.00566 8.82976 1.83156 9.18731C1.65746 9.54487 1.56688 9.93731 1.56665 10.335V21.375C1.56665 21.6734 1.68518 21.9595 1.89616 22.1705C2.10713 22.3815 2.39328 22.5 2.69165 22.5C2.99002 22.5 3.27617 22.3815 3.48715 22.1705C3.69812 21.9595 3.81665 21.6734 3.81665 21.375V10.335C3.81686 10.2783 3.82993 10.2224 3.85487 10.1715C3.87982 10.1205 3.91598 10.0759 3.96065 10.041L11.8357 3.861Z" fill="black"/>
<path d="M9.81665 21.375V15.75H14.3167V21.375C14.3167 21.6734 14.4352 21.9595 14.6462 22.1705C14.8571 22.3815 15.1433 22.5 15.4417 22.5C15.74 22.5 16.0262 22.3815 16.2371 22.1705C16.4481 21.9595 16.5667 21.6734 16.5667 21.375V15.375C16.5667 14.34 15.7267 13.5 14.6917 13.5H9.44165C8.40665 13.5 7.56665 14.34 7.56665 15.375V21.375C7.56665 21.6734 7.68518 21.9595 7.89616 22.1705C8.10713 22.3815 8.39328 22.5 8.69165 22.5C8.99002 22.5 9.27617 22.3815 9.48715 22.1705C9.69812 21.9595 9.81665 21.6734 9.81665 21.375Z" fill="black"/>
</svg>
