<svg width="25" height="24" viewBox="0 0 25 24" fill="none" xmlns="http://www.w3.org/2000/svg">
<g clip-path="url(#clip0_206_120)">
<path fill-rule="evenodd" clip-rule="evenodd" d="M3.39449 3.87151C1.84349 5.64901 0.84599 7.91551 0.66449 10.416H2.12099C2.30249 8.32651 3.14849 6.42751 4.44749 4.92301L3.39449 3.87151Z" fill="#434343"/>
<path fill-rule="evenodd" clip-rule="evenodd" d="M5.49901 5.97301C4.46551 7.20301 3.78151 8.73451 3.60901 10.416L9.94051 10.4145L5.49901 5.97301Z" fill="#434343"/>
<path fill-rule="evenodd" clip-rule="evenodd" d="M11.0535 0.0630035C8.55747 0.237004 6.28947 1.221 4.50897 2.763L5.56347 3.8175C7.07247 2.5485 8.97147 1.731 11.0535 1.5645V0.0630035Z" fill="#434343"/>
<path fill-rule="evenodd" clip-rule="evenodd" d="M11.0535 3.0465C9.38102 3.207 7.85102 3.864 6.61652 4.8705L11.0535 9.3075V3.0465Z" fill="#434343"/>
<path fill-rule="evenodd" clip-rule="evenodd" d="M3.60303 12.048C3.75303 13.7295 4.41603 15.267 5.44353 16.5045L9.94053 12.0495L3.60303 12.048Z" fill="#434343"/>
<path fill-rule="evenodd" clip-rule="evenodd" d="M0.661499 12.048C0.824999 14.5335 1.8135 16.7955 3.3615 18.567L4.392 17.547C3.099 16.038 2.271 14.136 2.1135 12.048H0.661499Z" fill="#434343"/>
<path fill-rule="evenodd" clip-rule="evenodd" d="M6.55048 17.598C7.79548 18.6345 9.34948 19.314 11.0535 19.476V13.0965L6.55048 17.598Z" fill="#434343"/>
<path fill-rule="evenodd" clip-rule="evenodd" d="M4.46997 19.6785C6.25497 21.24 8.53797 22.239 11.0535 22.413V20.958C8.94297 20.7885 7.02147 19.947 5.50197 18.648L4.46997 19.6785Z" fill="#434343"/>
<path fill-rule="evenodd" clip-rule="evenodd" d="M20.3145 18.5685C21.864 16.7955 22.848 14.5365 23.016 12.0495H21.588C21.429 14.142 20.598 16.05 19.299 17.5605L20.3145 18.5685Z" fill="#434343"/>
<path fill-rule="evenodd" clip-rule="evenodd" d="M13.734 12.0495L18.2475 16.5195C19.2795 15.282 19.9485 13.7385 20.0985 12.0495H13.734Z" fill="#434343"/>
<path fill-rule="evenodd" clip-rule="evenodd" d="M20.091 10.4145C19.9185 8.7285 19.2315 7.1925 18.192 5.9595L13.7355 10.4145H20.091Z" fill="#434343"/>
<path fill-rule="evenodd" clip-rule="evenodd" d="M23.0115 10.4145C22.83 7.9155 21.8325 5.64751 20.2815 3.87151L19.242 4.91101C20.5485 6.41701 21.399 8.31901 21.5805 10.4145H23.0115Z" fill="#434343"/>
<path fill-rule="evenodd" clip-rule="evenodd" d="M12.624 22.413C15.138 22.239 17.418 21.24 19.2045 19.6815L18.1845 18.6615C16.6605 19.9575 14.736 20.7945 12.624 20.9595V22.413Z" fill="#434343"/>
<path fill-rule="evenodd" clip-rule="evenodd" d="M12.624 19.479C14.3295 19.32 15.888 18.6465 17.136 17.613L12.624 13.098V19.479Z" fill="#434343"/>
</g>
<defs>
<clipPath id="clip0_206_120">
<rect width="24" height="24" fill="white" transform="translate(0.599976)"/>
</clipPath>
</defs>
</svg>
