<svg width="24" height="24" viewBox="0 0 24 24" fill="none" xmlns="http://www.w3.org/2000/svg">
<path d="M1.5 5.625C1.5 5.32663 1.61853 5.04048 1.8295 4.8295C2.04048 4.61853 2.32663 4.5 2.625 4.5H21.375C21.6734 4.5 21.9595 4.61853 22.1705 4.8295C22.3815 5.04048 22.5 5.32663 22.5 5.625C22.5 5.92337 22.3815 6.20952 22.1705 6.4205C21.9595 6.63147 21.6734 6.75 21.375 6.75H2.625C2.32663 6.75 2.04048 6.63147 1.8295 6.4205C1.61853 6.20952 1.5 5.92337 1.5 5.625ZM1.5 11.625C1.5 11.3266 1.61853 11.0405 1.8295 10.8295C2.04048 10.6185 2.32663 10.5 2.625 10.5H21.375C21.6734 10.5 21.9595 10.6185 22.1705 10.8295C22.3815 11.0405 22.5 11.3266 22.5 11.625C22.5 11.9234 22.3815 12.2095 22.1705 12.4205C21.9595 12.6315 21.6734 12.75 21.375 12.75H2.625C2.32663 12.75 2.04048 12.6315 1.8295 12.4205C1.61853 12.2095 1.5 11.9234 1.5 11.625ZM2.625 16.5C2.32663 16.5 2.04048 16.6185 1.8295 16.8295C1.61853 17.0405 1.5 17.3266 1.5 17.625C1.5 17.9234 1.61853 18.2095 1.8295 18.4205C2.04048 18.6315 2.32663 18.75 2.625 18.75H21.375C21.6734 18.75 21.9595 18.6315 22.1705 18.4205C22.3815 18.2095 22.5 17.9234 22.5 17.625C22.5 17.3266 22.3815 17.0405 22.1705 16.8295C21.9595 16.6185 21.6734 16.5 21.375 16.5H2.625Z" fill="black"/>
</svg>
